<svg xmlns="http://www.w3.org/2000/svg" viewBox="0 0 37.1 22.61"><defs><style>.cls-1{fill:#101010;}</style></defs><g id="Calque_2" data-name="Calque 2"><g id="Calque_1-2" data-name="Calque 1"><path class="cls-1" d="M10.67,6.35c2.57,0,4.45.55,5.66,1.66a5.59,5.59,0,0,1,1.84,4.36,10.27,10.27,0,0,1-.22,2,10.55,10.55,0,0,1-2,4.35,10.23,10.23,0,0,1-3.63,2.88,10.75,10.75,0,0,1-4.61,1c-2.62,0-4.57-.55-5.83-1.66A5.73,5.73,0,0,1,0,16.48a11,11,0,0,1,.23-2.09,9.8,9.8,0,0,1,2-4.17A10.33,10.33,0,0,1,6,7.38,10.93,10.93,0,0,1,10.67,6.35ZM10.59,9c-.4,0-.82.38-1.28,1.15a21.66,21.66,0,0,0-1.55,4.26,18.74,18.74,0,0,0-.91,4.42,1.49,1.49,0,0,0,.2.9.7.7,0,0,0,.54.21c.39,0,.8-.32,1.21-1.08a23.61,23.61,0,0,0,1.62-4.48,17.06,17.06,0,0,0,.87-4.26,1.47,1.47,0,0,0-.19-.88A.6.6,0,0,0,10.59,9Z"/><path class="cls-1" d="M35.09,18.17a.86.86,0,0,0-.05.36.57.57,0,0,0,.08.34.38.38,0,0,0,.28.12.67.67,0,0,0,.57-.31c.17-.22.28-.33.34-.33s.17.07.23.21a1.22,1.22,0,0,1,.08.46,2.86,2.86,0,0,1-.54,1.72,4.2,4.2,0,0,1-1.67,1.36,6,6,0,0,1-2.6.51,4.54,4.54,0,0,1-3-.9,3.18,3.18,0,0,1-1.14-2.48,7.37,7.37,0,0,1,.51-2.51l1.56-4.35a2.19,2.19,0,0,0,.14-.64.85.85,0,0,0-.82-.85,1.63,1.63,0,0,0-1.1.55,3.8,3.8,0,0,0-.88,1.69v-.06L25.33,19.2a2.64,2.64,0,0,0-.09.63,1.29,1.29,0,0,0,.14.64,2.21,2.21,0,0,0,.4.42,1.77,1.77,0,0,1,.28.36.39.39,0,0,1,0,.34.94.94,0,0,1-.57.57,3.49,3.49,0,0,1-1.3.18H17.77a1.92,1.92,0,0,1-1.08-.24.61.61,0,0,1-.22-.69,1.13,1.13,0,0,1,.59-.64,2.7,2.7,0,0,0,.71-.57,2.84,2.84,0,0,0,.48-1.06l4.3-15.09a1.48,1.48,0,0,0,.09-.45.88.88,0,0,0-.17-.55,2.21,2.21,0,0,0-.4-.42,2.74,2.74,0,0,1-.42-.42.58.58,0,0,1,0-.49c.11-.46.71-.86,1.78-1.21A11.14,11.14,0,0,1,26.77,0a3.59,3.59,0,0,1,2.41.67A2.25,2.25,0,0,1,30,2.48a4.41,4.41,0,0,1-.2,1.3L28.24,9.1A6.68,6.68,0,0,1,30.56,7a6.13,6.13,0,0,1,2.69-.6A3.62,3.62,0,0,1,36,7.47a4,4,0,0,1,1.07,2.9,6.09,6.09,0,0,1-.28,1.84Z"/></g></g></svg>